<mxfile host="app.diagrams.net" modified="2020-08-25T22:25:30.174Z" agent="5.0 (Windows NT 10.0; Win64; x64) AppleWebKit/537.36 (KHTML, like Gecko) Chrome/84.0.4147.135 Safari/537.36" etag="hoDWijKjq8vnvtLtPmss" version="13.6.5" type="github">
  <diagram id="wNBqWbaNxDe87QmoSqn4" name="Page-1">
    <mxGraphModel dx="1128" dy="622" grid="1" gridSize="10" guides="1" tooltips="1" connect="1" arrows="1" fold="1" page="1" pageScale="1" pageWidth="827" pageHeight="1169" math="0" shadow="0">
      <root>
        <mxCell id="0" />
        <mxCell id="1" parent="0" />
        <mxCell id="svupegZ1BK7ZTZ6G6fqw-1" value="" style="rounded=0;whiteSpace=wrap;html=1;" vertex="1" parent="1">
          <mxGeometry x="40" y="40" width="240" height="120" as="geometry" />
        </mxCell>
        <mxCell id="svupegZ1BK7ZTZ6G6fqw-2" value="" style="rounded=0;whiteSpace=wrap;html=1;align=left;" vertex="1" parent="1">
          <mxGeometry x="370" y="40" width="240" height="120" as="geometry" />
        </mxCell>
        <mxCell id="svupegZ1BK7ZTZ6G6fqw-3" value="1.&amp;nbsp; &amp;nbsp;Reglamento interno" style="text;html=1;strokeColor=none;fillColor=none;align=left;verticalAlign=middle;whiteSpace=wrap;rounded=0;" vertex="1" parent="1">
          <mxGeometry x="40" y="40" width="240" height="20" as="geometry" />
        </mxCell>
        <mxCell id="svupegZ1BK7ZTZ6G6fqw-5" value="Yo como inquilino&lt;br&gt;Quiero que exista un reglamento interno&lt;br&gt;Para mejorar la convivencia en la unidad" style="text;html=1;strokeColor=none;fillColor=none;align=left;verticalAlign=middle;whiteSpace=wrap;rounded=0;" vertex="1" parent="1">
          <mxGeometry x="40" y="80" width="210" height="20" as="geometry" />
        </mxCell>
        <mxCell id="svupegZ1BK7ZTZ6G6fqw-7" value="-El reglamento debe ser claro y conciso" style="text;html=1;strokeColor=none;fillColor=none;align=left;verticalAlign=middle;whiteSpace=wrap;rounded=0;" vertex="1" parent="1">
          <mxGeometry x="380" y="50" width="190" height="20" as="geometry" />
        </mxCell>
      </root>
    </mxGraphModel>
  </diagram>
</mxfile>
